:SAMPLES-PER-SECOND 30
:FULLY-SPECIFIED
:DEGREES
494
root  -7.485 38.9082 -0.312173 2.96008 -81.8958 -8.20483
RightUpLeg  6.25285 -13.6595 -19.1609
RightLeg  1.17665 2.18212 0.302576
RightFoot  3.16942 -2.59651 20.3686
RightToes  7.56698e-010 0 -3.6325e-017
Spine  5.8201 -1.25408 0.274175
Spine1  2.34421 -1.6154 2.24146
HEad  5.17912 -24.0574 3.5895
LeftShoulder1  2.4819 -5.37965 -21.5912
LeftArm  18.5873 16.317 -51.7343
LeftForeArm  11.945 -31.496 -6.24075
LeftHand  -1.26019 1.28241 34.9211
RightShoulder  1.08923 1.24656 16.2973
RightArm  -12.2046 -11.2063 53.3124
RightForeArm  30.5307 2.66307 13.318
RightHand  -1.32866 2.26953 -20.1687
LeftUpLeg  2.72706 12.8553 19.6196
LeftLeg  5.27901 -24.2674 0.899806
LeftFoot  -5.80377 1.02084 -20.2086
LeftToes  -3.13779e-010 -2.47553e-011 -5.36621e-011
495
root  -7.5294 38.9219 -0.278749 1.1875 -81.8327 -6.36157
RightUpLeg  6.5028 -13.7419 -19.4967
RightLeg  0.765822 2.13587 0.254786
RightFoot  3.27727 -2.63103 20.4867
RightToes  7.56698e-010 0 -3.6325e-017
Spine  5.64522 -1.27927 0.29002
Spine1  2.14697 -1.59067 2.00104
HEad  5.03498 -23.7262 3.99929
LeftShoulder1  2.47808 -5.29395 -21.8342
LeftArm  23.1768 15.8583 -51.4187
LeftForeArm  7.28773 -26.6926 -5.25962
LeftHand  -1.19913 1.43768 34.5596
RightShoulder  1.08359 1.2176 16.321
RightArm  -14.8275 -12.3825 52.6448
RightForeArm  30.3794 0.887902 12.944
RightHand  -1.25044 1.90776 -19.9153
LeftUpLeg  2.91248 13.1356 19.4548
LeftLeg  4.93393 -24.559 0.764495
LeftFoot  -5.60779 1.04863 -20.0917
LeftToes  -3.13779e-010 -2.47553e-011 -5.36621e-011
496
root  -7.56971 38.932 -0.238154 -0.412964 -81.9164 -4.70471
RightUpLeg  6.64499 -13.8521 -19.8365
RightLeg  0.45874 2.31885 0.235945
RightFoot  3.39722 -2.65888 20.5368
RightToes  7.56698e-010 0 -3.6325e-017
Spine  5.42203 -1.3027 0.587828
Spine1  2.10307 -1.4916 1.39417
HEad  4.62596 -23.3857 4.39467
LeftShoulder1  2.45303 -5.20762 -21.8249
LeftArm  25.9568 15.496 -51.1904
LeftForeArm  3.93022 -22.0344 -5.40164
LeftHand  -1.17574 1.44357 33.9727
RightShoulder  1.09296 1.24577 16.3874
RightArm  -15.8591 -13.8131 52.0858
RightForeArm  29.5868 0.796161 12.677
RightHand  -1.11504 1.41776 -19.0379
LeftUpLeg  3.14282 13.233 19.2363
LeftLeg  4.62137 -24.5079 0.74841
LeftFoot  -5.48037 1.06712 -20.028
LeftToes  -3.13779e-010 -2.47553e-011 -5.36621e-011
497
root  -7.59089 38.9364 -0.19697 -2.1012 -82.0508 -3.06409
RightUpLeg  6.77818 -13.977 -20.1961
RightLeg  0.299173 2.65713 0.217417
RightFoot  3.4737 -2.68387 20.6223
RightToes  7.56698e-010 0 -3.6325e-017
Spine  5.35493 -1.35443 0.819594
Spine1  2.12854 -1.44591 0.888929
HEad  3.78379 -23.153 4.78074
LeftShoulder1  2.41788 -5.1134 -21.7185
LeftArm  19.0449 15.1495 -50.6239
LeftForeArm  9.59337 -16.7564 -9.06158
LeftHand  -1.22135 1.21351 33.3742
RightShoulder  1.10813 1.3088 16.4017
RightArm  -15.7007 -15.1204 51.6095
RightForeArm  28.1285 1.69313 12.7055
RightHand  -0.957508 0.83048 -17.9012
LeftUpLeg  3.38514 13.1679 18.9742
LeftLeg  4.48425 -24.2933 0.769977
LeftFoot  -5.47083 1.06866 -20.0264
LeftToes  -3.13779e-010 -2.47553e-011 -5.36621e-011
498
root  -7.58833 38.9375 -0.167973 -3.58936 -82.1732 -1.71472
RightUpLeg  6.91506 -14.0662 -20.4874
RightLeg  0.239194 2.92953 0.180049
RightFoot  3.50743 -2.69984 20.6965
RightToes  7.56698e-010 0 -3.6325e-017
Spine  5.515 -1.42615 0.856902
Spine1  2.11495 -1.48454 0.702745
HEad  2.60921 -22.9988 5.27721
LeftShoulder1  2.40805 -5.0857 -21.6929
LeftArm  8.16228 15.091 -49.7251
LeftForeArm  17.3827 -11.2761 -12.286
LeftHand  -1.24516 0.993345 32.364
RightShoulder  1.11616 1.34819 16.3774
RightArm  -14.6348 -16.0918 51.2128
RightForeArm  26.38 2.91238 12.8759
RightHand  -0.846529 0.371555 -17.0831
LeftUpLeg  3.59328 13.035 18.7407
LeftLeg  4.5021 -24.0671 0.799924
LeftFoot  -5.48601 1.06495 -20.0051
LeftToes  -3.13779e-010 -2.47553e-011 -5.36621e-011
499
root  -7.57111 38.9379 -0.153407 -4.44666 -82.2663 -0.977783
RightUpLeg  6.9848 -14.1071 -20.6403
RightLeg  0.217036 3.06889 0.148026
RightFoot  3.54891 -2.70868 20.7072
RightToes  7.56698e-010 0 -3.6325e-017
Spine  5.76354 -1.51249 0.863646
Spine1  2.00846 -1.55797 0.627702
HEad  1.32149 -22.8878 5.95279
LeftShoulder1  2.41703 -5.12214 -21.6784
LeftArm  0.0500915 15.4351 -48.7825
LeftForeArm  20.264 -7.13428 -13.4838
LeftHand  -1.12369 1.09493 29.9378
RightShoulder  1.12484 1.37578 16.4293
RightArm  -13.4144 -16.7367 50.8708
RightForeArm  25.1412 3.98133 12.9676
RightHand  -0.7973 0.187915 -16.6133
LeftUpLeg  3.71174 12.9156 18.5902
LeftLeg  4.5495 -23.8761 0.849355
LeftFoot  -5.44971 1.06825 -19.9505
LeftToes  -3.13779e-010 -2.47553e-011 -5.36621e-011
500
root  -7.55233 38.9388 -0.145197 -4.79395 -82.3511 -0.684326
RightUpLeg  6.99559 -14.1318 -20.7068
RightLeg  0.174332 3.1914 0.142711
RightFoot  3.61431 -2.72474 20.7395
RightToes  7.56698e-010 0 -3.6325e-017
Spine  5.94774 -1.584 0.902916
Spine1  1.85988 -1.61389 0.537102
HEad  0.0561796 -22.8792 6.74597
LeftShoulder1  2.42127 -5.16047 -21.5901
LeftArm  -4.80028 16.0052 -47.9816
LeftForeArm  18.3823 -4.70016 -13.7138
LeftHand  -0.887383 1.47809 26.0794
RightShoulder  1.13677 1.41077 16.515
RightArm  -12.6375 -17.1103 50.6466
RightForeArm  24.4971 4.72114 12.9528
RightHand  -0.780789 0.182714 -16.2875
LeftUpLeg  3.76348 12.8716 18.5246
LeftLeg  4.56853 -23.7479 0.87425
LeftFoot  -5.40162 1.07418 -19.9082
LeftToes  -3.13779e-010 -2.47553e-011 -5.36621e-011
501
root  -7.53735 38.941 -0.137944 -4.94958 -82.4497 -0.545288
RightUpLeg  7.00583 -14.1365 -20.7346
RightLeg  0.0620552 3.3061 0.132964
RightFoot  3.6944 -2.754 20.8492
RightToes  7.56698e-010 0 -3.6325e-017
Spine  6.03668 -1.58834 0.882351
Spine1  1.73347 -1.62603 0.5559
HEad  -1.05121 -23.0356 7.50065
LeftShoulder1  2.42444 -5.18954 -21.5022
LeftArm  -7.74355 16.6204 -47.3953
LeftForeArm  14.8878 -3.45553 -13.6157
LeftHand  -0.698077 1.80036 22.4914
RightShoulder  1.13618 1.41788 16.465
RightArm  -12.2509 -17.2335 50.66
RightForeArm  23.944 5.16995 12.9201
RightHand  -0.775684 0.207175 -16.1138
LeftUpLeg  3.80052 12.9171 18.5226
LeftLeg  4.57806 -23.6882 0.832439
LeftFoot  -5.37978 1.07646 -19.8815
LeftToes  -3.13779e-010 -2.47553e-011 -5.36621e-011
502
root  -7.52059 38.9436 -0.131287 -4.98474 -82.5505 -0.505249
RightUpLeg  7.0075 -14.0979 -20.7112
RightLeg  -0.105299 3.31376 0.0876242
RightFoot  3.79364 -2.78752 20.9635
RightToes  7.56698e-010 0 -3.6325e-017
Spine  6.11402 -1.52417 0.818629
Spine1  1.57003 -1.58855 0.684503
HEad  -1.82379 -23.3333 8.06129
LeftShoulder1  2.42505 -5.22228 -21.4356
LeftArm  -9.72953 17.1982 -47.0514
LeftForeArm  12.6826 -2.92466 -13.3502
LeftHand  -0.625206 1.88544 20.6174
RightShoulder  1.11943 1.38033 16.2842
RightArm  -12.048 -17.1283 50.881
RightForeArm  23.4307 5.35953 12.9241
RightHand  -0.772192 0.193858 -16.0792
LeftUpLeg  3.81349 12.9856 18.5415
LeftLeg  4.58536 -23.6451 0.772593
LeftFoot  -5.35408 1.07935 -19.8542
LeftToes  -3.13779e-010 -2.47553e-011 -5.36621e-011
503
root  -7.49305 38.9458 -0.123287 -4.99304 -82.6162 -0.477051
RightUpLeg  6.97854 -14.0545 -20.6774
RightLeg  -0.259886 3.25478 0.0401937
RightFoot  3.91003 -2.81754 21.0283
RightToes  7.56698e-010 0 -3.6325e-017
Spine  6.29636 -1.4429 0.838933
Spine1  1.25914 -1.50666 0.704969
HEad  -2.24751 -23.7254 8.38628
LeftShoulder1  2.4189 -5.24061 -21.2968
LeftArm  -10.9064 17.6849 -46.9228
LeftForeArm  12.0945 -2.96559 -13.0602
LeftHand  -0.596723 1.96686 20.1193
RightShoulder  1.10371 1.33901 16.1435
RightArm  -11.9959 -16.8354 51.1642
RightForeArm  23.2355 5.31552 12.9562
RightHand  -0.759886 0.121236 -16.0275
LeftUpLeg  3.77359 12.9962 18.5195
LeftLeg  4.58901 -23.5758 0.758874
LeftFoot  -5.30848 1.08626 -19.8392
LeftToes  -3.13779e-010 -2.47553e-011 -5.36621e-011
